# xmcd
#
# Track frame offsets: 
#        150
#        24150
#        41475
#        58550
#        81300
#        102375
#        118800
#        137250
#        155250
#        171625
#        189225
#        208350
#        224775
#        243975
#        259125
#        277200
#        293325
#        315750
#        329250
#
# Disc length: 4574 seconds
#
# Revision: 7
# Processed by: cddbd v1.5.2PL0 Copyright (c) Steve Scherf et al.
# Submitted via: ExactAudioCopy v0.99pb5
#
DISCID=1711dc13
DTITLE=Various Artist - Reggae Nights Vol.1
DYEAR=1992
DGENRE=Reggae
TTITLE0=Jimmy Cliff - Reggae Night
TTITLE1=Rastaman Sensation - Could You Be Loved
TTITLE2=Outer Space - Sweat (A La La La La Long)
TTITLE3=Inner Circle - Nothing Under The Sun
TTITLE4=Garland Jeffreys - Matador
TTITLE5=Eddy Grant - I Don't Wanna Dance
TTITLE6=Black Slate - Amigo
TTITLE7=Peter Tosh - Johnny B. Goode
TTITLE8=Shabba Ranks - Mr. Loverman
TTITLE9=Shabba Ranks and Maxi Priest - Housecall
TTITLE10=Jimmy Somerville - To Love Somebody
TTITLE11=Kate Yanai - Summer Dreaming
TTITLE12=Laid Back - Sunshine Reggae
TTITLE13=Musical Youth - Pass The Dutchie
TTITLE14=Clint Eastwood and General Saint - Stop The Train
TTITLE15=Aswad - Don't Turn Around
TTITLE16=10 CC - Dreadlock Holiday
TTITLE17=Eddy Grant - Do You Feel My Love
TTITLE18=Rastaman Sensation - Iron Lion Zion
EXTD=
EXTT0=
EXTT1=
EXTT2=
EXTT3=
EXTT4=
EXTT5=
EXTT6=
EXTT7=
EXTT8=
EXTT9=
EXTT10=
EXTT11=
EXTT12=
EXTT13=
EXTT14=
EXTT15=
EXTT16=
EXTT17=
EXTT18=
PLAYORDER=
